<svg xmlns="http://www.w3.org/2000/svg" viewBox="0 0 1015 242">
                <g>
                    <path d="M92.8993 53.3021L91.7381 68.4169C83.6094 57.9528 71.997 50.2017 54.1913 50.2017C18.5799 50.2017 0 79.2685 0 118.799C0 158.33 20.9023 185.847 52.2559 185.847C72.384 185.847 83.9965 176.158 90.1897 168.407V185.46C90.1897 198.637 85.5448 221.115 53.8042 221.115C42.5789 221.115 34.4502 218.402 25.9344 213.751L12.3866 231.191C23.612 238.167 36.7727 241.268 54.5784 241.268C90.1898 241.268 111.866 219.952 111.866 185.46V52.5271H92.8993V53.3021ZM90.5769 148.642C84.7706 159.106 70.8357 166.082 56.5138 166.082C35.2243 166.082 22.4507 148.254 22.4507 118.024C22.4507 95.1585 33.2889 70.3547 56.5138 70.3547C70.8357 70.3547 82.4482 76.9433 90.5769 89.3452V148.642Z"></path>
                </g>
                <g>
                    <path d="M204.709 51.7003C192.941 51.7003 170.546 63.007 162.575 70.4148L162.195 52.48H141.697V185.821H163.334V88.3496C173.583 79.3822 193.701 73.9237 205.088 73.5339V51.7003H204.709Z"></path>
                </g>
                <g>
                    <path d="M318.446 95.1248C318.446 66.8542 300.209 50.2017 269.943 50.2017C249.766 50.2017 232.693 56.0107 220.276 66.8542L232.305 83.1195C244.334 72.6633 255.198 67.6288 269.943 67.6288C286.24 67.6288 296.329 76.5359 296.329 91.2521V104.806H281.196C234.245 104.806 213.292 118.361 213.292 148.568C213.292 172.966 230.365 188.069 257.914 188.069C272.271 188.069 288.568 180.711 297.105 166.769L298.269 184.971H317.67L318.446 95.1248ZM296.329 150.117C292.06 157.862 278.092 170.255 258.302 170.255C246.274 170.255 235.409 163.671 235.409 148.568C235.409 129.979 250.542 121.846 285.076 121.846H296.329V150.117Z"></path>
                </g>
                <g>
                    <path d="M407.407 50.2017C390.825 50.2017 376.942 56.0406 366.144 67.7183L365.373 52.9265H344.548V239.769H366.144V175.153C373.857 182.16 388.896 188.777 403.936 188.777C437.872 188.777 457.154 163.086 457.154 118.322C457.54 75.1141 439.415 50.2017 407.407 50.2017ZM402.394 169.314C381.955 169.314 372.314 158.804 366.915 152.576V89.1273C375.399 77.4497 389.282 69.6645 403.165 69.6645C418.976 69.6645 435.559 82.5099 435.559 118.711C435.559 151.019 423.604 169.314 402.394 169.314Z"></path>
                </g>
                <g>
                    <path d="M585.434 101.989C585.434 59.88 562.47 50.9946 543.398 50.6083C527.829 50.6083 512.65 56.7894 500.973 69.1518V0H478.788V185.435H500.973V93.4901C510.704 79.1961 524.715 71.0834 539.895 71.0834C555.074 71.0834 563.248 82.2868 563.248 102.376V185.821H585.434V101.989Z"></path>
                </g>
                <g>
                    <path d="M659.621 169.016C642.733 169.016 630.068 161.25 630.068 146.107C630.068 132.518 639.663 125.14 647.339 124.364H683.417V106.503H642.35C638.128 105.338 631.987 99.1252 631.987 89.8065C631.987 76.6049 642.35 67.6744 660.005 67.6744C670.751 67.6744 678.811 70.3923 686.871 76.2166L698.386 60.6853C690.326 55.6376 676.509 50.2017 660.005 50.2017C628.532 50.2017 610.877 64.9564 610.877 90.5831C610.877 100.678 615.483 111.55 622.775 117.375C613.564 122.81 607.807 134.071 607.807 146.884C607.807 172.122 625.078 188.818 658.47 188.818C676.509 188.818 692.245 182.606 699.537 177.947V158.144C687.639 164.357 672.287 169.016 659.621 169.016Z"></path>
                    <path d="M665.711 0L651.807 30.7205H666.483L695.062 0H665.711Z"></path>
                </g>
                <g>
                    <path d="M748.012 0H724.148V22.4784H748.012V0Z"></path>
                    <path d="M747.267 53.1989H724.893V185.821H747.267V53.1989Z"></path>
                </g>
                <g>
                    <path d="M882.252 185.821V101.885C882.252 78.5691 875.295 50.5903 841.283 50.2017C820.799 50.2017 805.339 61.0823 797.609 70.02L797.223 52.5332H776.352V185.433H797.996L798.382 92.9472C808.045 78.5692 821.958 70.4086 837.032 70.4086C852.105 70.4086 860.222 81.6779 860.222 101.885V185.821H882.252Z"></path>
                </g>
                <g>
                    <path d="M962.432 50.2017C925.668 50.2017 905.371 74.9868 905.371 120.297C905.371 163.284 926.817 188.069 963.581 188.069C983.112 188.069 998.43 181.486 1010.69 168.319L999.196 152.441C988.856 162.51 976.602 168.319 963.964 168.319C941.369 168.319 928.349 152.828 927.2 126.106H1013.75C1020.64 81.9576 998.43 50.2017 962.432 50.2017ZM927.583 107.517C928.349 83.5068 940.986 68.016 962.049 68.016C981.58 68.016 993.069 82.7322 993.452 107.517H927.583Z"></path>
                </g>
            </svg>